ply
format ascii 1.0
element vertex 815
property float x
property float y
property float z
property uchar red
property uchar green
property uchar blue
end_header
-0.9688 -0.9688 -0.9688 51 238 255
-0.2812 0.0938 0.0312 50 239 255
-0.2188 -0.2812 -0.2188 50 239 255
-0.2188 -0.2188 -0.2188 52 238 255
-0.2188 -0.2188 -0.1562 50 239 255
-0.2188 -0.2188 -0.0312 49 239 255
-0.2188 -0.2188 0.0312 53 238 255
-0.2188 -0.1562 -0.2188 51 238 255
-0.2188 -0.1562 -0.1562 49 239 255
-0.2188 -0.1562 -0.0938 56 237 255
-0.2188 -0.1562 -0.0312 54 237 255
-0.2188 -0.1562 0.0312 55 237 255
-0.2188 -0.1562 0.0938 50 239 255
-0.2188 -0.1562 0.1562 50 239 255
-0.2188 -0.0938 -0.2188 51 238 255
-0.2188 -0.0938 -0.1562 50 239 255
-0.2188 -0.0938 -0.0938 57 236 255
-0.2188 -0.0938 -0.0312 54 237 255
-0.2188 -0.0938 0.0312 57 236 255
-0.2188 -0.0938 0.0938 52 238 255
-0.2188 -0.0938 0.1562 55 237 255
-0.2188 -0.0938 0.2188 50 239 255
-0.2188 -0.0312 -0.2188 55 237 255
-0.2188 -0.0312 -0.0938 52 238 255
-0.2188 -0.0312 -0.0312 54 237 255
-0.2188 -0.0312 0.0312 62 235 255
-0.2188 -0.0312 0.0938 52 238 255
-0.2188 -0.0312 0.1562 50 239 255
-0.2188 -0.0312 0.2188 53 238 255
-0.2188 -0.0312 0.2812 50 239 255
-0.2188 0.0312 -0.2188 51 238 255
-0.2188 0.0312 -0.1562 50 239 255
-0.2188 0.0312 -0.0938 52 238 255
-0.2188 0.0312 -0.0312 55 237 255
-0.2188 0.0312 0.0312 60 235 255
-0.2188 0.0312 0.0938 58 236 255
-0.2188 0.0312 0.1562 55 237 255
-0.2188 0.0312 0.2188 55 237 255
-0.2188 0.0312 0.2812 55 237 255
-0.2188 0.0938 -0.0938 57 236 255
-0.2188 0.0938 -0.0312 56 237 255
-0.2188 0.0938 0.0312 63 234 255
-0.2188 0.0938 0.0938 57 236 255
-0.2188 0.0938 0.1562 62 235 255
-0.2188 0.0938 0.2188 57 236 255
-0.2188 0.0938 0.2812 51 238 255
-0.2188 0.1562 -0.0938 49 239 255
-0.2188 0.1562 0.0312 53 238 255
-0.2188 0.1562 0.0938 52 238 255
-0.2188 0.1562 0.1562 56 237 255
-0.2188 0.1562 0.2188 51 238 255
-0.2188 0.1562 0.2812 49 239 255
-0.2188 0.2188 0.0312 57 236 255
-0.2188 0.2188 0.0938 48 239 255
-0.2188 0.2188 0.1562 50 239 255
-0.2188 0.2188 0.2188 51 238 255
-0.2188 0.2188 0.2812 52 238 255
-0.1562 -0.2812 -0.2188 50 239 255
-0.1562 -0.2188 -0.2188 51 238 255
-0.1562 -0.2188 -0.1562 50 239 255
-0.1562 -0.2188 -0.0938 53 238 255
-0.1562 -0.2188 -0.0312 48 239 255
-0.1562 -0.2188 0.0312 49 239 255
-0.1562 -0.2188 0.0938 48 239 255
-0.1562 -0.1562 -0.2188 53 238 255
-0.1562 -0.1562 -0.1562 51 238 255
-0.1562 -0.1562 -0.0938 56 237 255
-0.1562 -0.1562 -0.0312 53 238 255
-0.1562 -0.1562 0.0312 54 237 255
-0.1562 -0.1562 0.0938 52 238 255
-0.1562 -0.1562 0.1562 50 239 255
-0.1562 -0.0938 -0.2188 54 237 255
-0.1562 -0.0938 -0.1562 54 237 255
-0.1562 -0.0938 -0.0938 57 236 255
-0.1562 -0.0938 -0.0312 59 236 255
-0.1562 -0.0938 0.0312 58 236 255
-0.1562 -0.0938 0.0938 56 237 255
-0.1562 -0.0938 0.1562 53 238 255
-0.1562 -0.0938 0.2188 56 237 255
-0.1562 -0.0312 -0.2188 58 236 255
-0.1562 -0.0312 -0.1562 54 237 255
-0.1562 -0.0312 -0.0938 60 235 255
-0.1562 -0.0312 -0.0312 55 237 255
-0.1562 -0.0312 0.0312 62 235 255
-0.1562 -0.0312 0.0938 58 236 255
-0.1562 -0.0312 0.1562 58 236 255
-0.1562 -0.0312 0.2188 53 238 255
-0.1562 -0.0312 0.2812 48 239 255
-0.1562 0.0312 -0.2188 48 239 255
-0.1562 0.0312 -0.1562 51 238 255
-0.1562 0.0312 -0.0938 55 237 255
-0.1562 0.0312 -0.0312 55 237 255
-0.1562 0.0312 0.0312 57 236 255
-0.1562 0.0312 0.0938 54 237 255
-0.1562 0.0312 0.1562 57 236 255
-0.1562 0.0312 0.2188 54 237 255
-0.1562 0.0938 -0.2188 50 239 255
-0.1562 0.0938 -0.1562 50 239 255
-0.1562 0.0938 -0.0938 58 236 255
-0.1562 0.0938 -0.0312 55 237 255
-0.1562 0.0938 0.0312 60 235 255
-0.1562 0.0938 0.0938 59 236 255
-0.1562 0.0938 0.1562 61 235 255
-0.1562 0.0938 0.2188 56 237 255
-0.1562 0.0938 0.2812 50 239 255
-0.1562 0.1562 -0.1562 49 239 255
-0.1562 0.1562 -0.0938 51 238 255
-0.1562 0.1562 -0.0312 54 237 255
-0.1562 0.1562 0.0312 57 236 255
-0.1562 0.1562 0.0938 57 236 255
-0.1562 0.1562 0.1562 58 236 255
-0.1562 0.1562 0.2188 61 235 255
-0.1562 0.1562 0.2812 51 238 255
-0.1562 0.1562 0.3438 50 239 255
-0.1562 0.2188 -0.2188 49 239 255
-0.1562 0.2188 -0.0938 49 239 255
-0.1562 0.2188 0.0312 61 235 255
-0.1562 0.2188 0.0938 57 236 255
-0.1562 0.2188 0.1562 58 236 255
-0.1562 0.2188 0.2188 56 237 255
-0.1562 0.2188 0.2812 51 238 255
-0.0938 -0.3438 -0.2188 51 238 255
-0.0938 -0.3438 -0.1562 52 238 255
-0.0938 -0.3438 -0.0938 49 239 255
-0.0938 -0.2812 -0.2188 54 237 255
-0.0938 -0.2812 -0.1562 51 238 255
-0.0938 -0.2812 -0.0938 57 236 255
-0.0938 -0.2812 -0.0312 51 238 255
-0.0938 -0.2812 0.0312 48 239 255
-0.0938 -0.2188 -0.2188 58 236 255
-0.0938 -0.2188 -0.1562 54 237 255
-0.0938 -0.2188 -0.0938 54 237 255
-0.0938 -0.2188 -0.0312 53 238 255
-0.0938 -0.2188 0.0312 57 236 255
-0.0938 -0.2188 0.0938 52 238 255
-0.0938 -0.2188 0.1562 49 239 255
-0.0938 -0.1562 -0.2188 57 236 255
-0.0938 -0.1562 -0.1562 52 238 255
-0.0938 -0.1562 -0.0938 57 236 255
-0.0938 -0.1562 -0.0312 54 237 255
-0.0938 -0.1562 0.0312 58 236 255
-0.0938 -0.1562 0.0938 53 238 255
-0.0938 -0.1562 0.1562 53 238 255
-0.0938 -0.1562 0.2188 49 239 255
-0.0938 -0.0938 -0.2188 62 235 255
-0.0938 -0.0938 -0.1562 63 234 255
-0.0938 -0.0938 -0.0938 59 236 255
-0.0938 -0.0938 -0.0312 57 236 255
-0.0938 -0.0938 0.0312 62 235 255
-0.0938 -0.0938 0.0938 63 234 255
-0.0938 -0.0938 0.1562 57 236 255
-0.0938 -0.0938 0.2188 52 238 255
-0.0938 -0.0938 0.2812 50 239 255
-0.0938 -0.0938 0.3438 49 239 255
-0.0938 -0.0312 -0.2188 60 235 255
-0.0938 -0.0312 -0.1562 58 236 255
-0.0938 -0.0312 -0.0938 66 233 255
-0.0938 -0.0312 -0.0312 59 236 255
-0.0938 -0.0312 0.0312 64 234 255
-0.0938 -0.0312 0.0938 60 235 255
-0.0938 -0.0312 0.1562 64 234 255
-0.0938 -0.0312 0.2188 55 237 255
-0.0938 -0.0312 0.2812 50 239 255
-0.0938 0.0312 -0.2188 59 236 255
-0.0938 0.0312 -0.1562 57 236 255
-0.0938 0.0312 -0.0938 59 236 255
-0.0938 0.0312 -0.0312 57 236 255
-0.0938 0.0312 0.0312 62 235 255
-0.0938 0.0312 0.0938 58 236 255
-0.0938 0.0312 0.1562 58 236 255
-0.0938 0.0312 0.2188 56 237 255
-0.0938 0.0312 0.2812 54 237 255
-0.0938 0.0312 0.3438 49 239 255
-0.0938 0.0938 -0.2188 58 236 255
-0.0938 0.0938 -0.1562 53 238 255
-0.0938 0.0938 -0.0938 60 235 255
-0.0938 0.0938 -0.0312 58 236 255
-0.0938 0.0938 0.0312 62 235 255
-0.0938 0.0938 0.0938 57 236 255
-0.0938 0.0938 0.1562 61 235 255
-0.0938 0.0938 0.2188 57 236 255
-0.0938 0.0938 0.2812 55 237 255
-0.0938 0.0938 0.3438 49 239 255
-0.0938 0.1562 -0.2188 58 236 255
-0.0938 0.1562 -0.1562 59 236 255
-0.0938 0.1562 -0.0938 59 236 255
-0.0938 0.1562 -0.0312 54 237 255
-0.0938 0.1562 0.0312 63 234 255
-0.0938 0.1562 0.0938 64 234 255
-0.0938 0.1562 0.1562 61 235 255
-0.0938 0.1562 0.2188 56 237 255
-0.0938 0.1562 0.2812 55 237 255
-0.0938 0.1562 0.3438 55 237 255
-0.0938 0.2188 -0.2188 55 237 255
-0.0938 0.2188 -0.1562 51 238 255
-0.0938 0.2188 -0.0938 61 235 255
-0.0938 0.2188 -0.0312 56 237 255
-0.0938 0.2188 0.0312 62 235 255
-0.0938 0.2188 0.0938 59 236 255
-0.0938 0.2188 0.1562 64 234 255
-0.0938 0.2188 0.2188 57 236 255
-0.0938 0.2188 0.2812 55 237 255
-0.0938 0.2812 0.0312 49 239 255
-0.0312 -0.3438 -0.2188 50 239 255
-0.0312 -0.2812 -0.2188 55 237 255
-0.0312 -0.2812 -0.1562 52 238 255
-0.0312 -0.2812 -0.0938 51 238 255
-0.0312 -0.2812 0.0312 51 238 255
-0.0312 -0.2188 -0.2188 58 236 255
-0.0312 -0.2188 -0.1562 53 238 255
-0.0312 -0.2188 -0.0938 59 236 255
-0.0312 -0.2188 -0.0312 54 237 255
-0.0312 -0.2188 0.0312 55 237 255
-0.0312 -0.2188 0.0938 53 238 255
-0.0312 -0.2188 0.1562 54 237 255
-0.0312 -0.1562 -0.2188 60 235 255
-0.0312 -0.1562 -0.1562 57 236 255
-0.0312 -0.1562 -0.0938 58 236 255
-0.0312 -0.1562 -0.0312 57 236 255
-0.0312 -0.1562 0.0312 62 235 255
-0.0312 -0.1562 0.0938 58 236 255
-0.0312 -0.1562 0.1562 55 237 255
-0.0312 -0.1562 0.2188 52 238 255
-0.0312 -0.0938 -0.2188 63 234 255
-0.0312 -0.0938 -0.1562 58 236 255
-0.0312 -0.0938 -0.0938 59 236 255
-0.0312 -0.0938 -0.0312 59 236 255
-0.0312 -0.0938 0.0312 63 234 255
-0.0312 -0.0938 0.0938 59 236 255
-0.0312 -0.0938 0.1562 56 237 255
-0.0312 -0.0938 0.2188 55 237 255
-0.0312 -0.0938 0.2812 51 238 255
-0.0312 -0.0312 -0.2188 63 234 255
-0.0312 -0.0312 -0.1562 60 235 255
-0.0312 -0.0312 -0.0938 59 236 255
-0.0312 -0.0312 -0.0312 57 236 255
-0.0312 -0.0312 0.0312 64 234 255
-0.0312 -0.0312 0.0938 60 235 255
-0.0312 -0.0312 0.1562 57 236 255
-0.0312 -0.0312 0.2188 53 238 255
-0.0312 -0.0312 0.2812 52 238 255
-0.0312 0.0312 -0.2188 61 235 255
-0.0312 0.0312 -0.1562 56 237 255
-0.0312 0.0312 -0.0938 64 234 255
-0.0312 0.0312 -0.0312 62 235 255
-0.0312 0.0312 0.0312 65 234 255
-0.0312 0.0312 0.0938 59 236 255
-0.0312 0.0312 0.1562 63 234 255
-0.0312 0.0312 0.2188 58 236 255
-0.0312 0.0312 0.2812 55 237 255
-0.0312 0.0312 0.3438 49 239 255
-0.0312 0.0938 -0.2188 63 234 255
-0.0312 0.0938 -0.1562 59 236 255
-0.0312 0.0938 -0.0938 62 235 255
-0.0312 0.0938 -0.0312 61 235 255
-0.0312 0.0938 0.0312 68 233 255
-0.0312 0.0938 0.0938 63 234 255
-0.0312 0.0938 0.1562 64 234 255
-0.0312 0.0938 0.2188 59 236 255
-0.0312 0.0938 0.2812 59 236 255
-0.0312 0.0938 0.3438 52 238 255
-0.0312 0.1562 -0.2188 57 236 255
-0.0312 0.1562 -0.1562 57 236 255
-0.0312 0.1562 -0.0938 58 236 255
-0.0312 0.1562 -0.0312 58 236 255
-0.0312 0.1562 0.0312 64 234 255
-0.0312 0.1562 0.0938 60 235 255
-0.0312 0.1562 0.1562 58 236 255
-0.0312 0.1562 0.2188 57 236 255
-0.0312 0.1562 0.2812 54 237 255
-0.0312 0.1562 0.3438 52 238 255
-0.0312 0.2188 -0.2188 56 237 255
-0.0312 0.2188 -0.1562 55 237 255
-0.0312 0.2188 -0.0938 55 237 255
-0.0312 0.2188 -0.0312 55 237 255
-0.0312 0.2188 0.0312 61 235 255
-0.0312 0.2188 0.0938 58 236 255
-0.0312 0.2188 0.1562 56 237 255
-0.0312 0.2188 0.2188 52 238 255
-0.0312 0.2188 0.2812 53 238 255
-0.0312 0.2812 -0.0312 48 239 255
-0.0312 0.2812 0.0312 49 239 255
-0.0312 0.3438 0.0312 49 239 255
0.0312 -0.3438 -0.2188 54 237 255
0.0312 -0.3438 -0.1562 48 239 255
0.0312 -0.3438 -0.0938 55 237 255
0.0312 -0.3438 -0.0312 53 238 255
0.0312 -0.3438 0.0312 49 239 255
0.0312 -0.2812 -0.2188 63 234 255
0.0312 -0.2812 -0.1562 52 238 255
0.0312 -0.2812 -0.0938 54 237 255
0.0312 -0.2812 -0.0312 55 237 255
0.0312 -0.2812 0.0312 57 236 255
0.0312 -0.2812 0.0938 51 238 255
0.0312 -0.2188 -0.2188 62 235 255
0.0312 -0.2188 -0.1562 58 236 255
0.0312 -0.2188 -0.0938 57 236 255
0.0312 -0.2188 -0.0312 59 236 255
0.0312 -0.2188 0.0312 63 234 255
0.0312 -0.2188 0.0938 59 236 255
0.0312 -0.2188 0.1562 55 237 255
0.0312 -0.2188 0.2188 55 237 255
0.0312 -0.2188 0.2812 48 239 255
0.0312 -0.1562 -0.2812 48 239 255
0.0312 -0.1562 -0.2188 67 233 255
0.0312 -0.1562 -0.1562 61 235 255
0.0312 -0.1562 -0.0938 68 233 255
0.0312 -0.1562 -0.0312 63 234 255
0.0312 -0.1562 0.0312 68 233 255
0.0312 -0.1562 0.0938 62 235 255
0.0312 -0.1562 0.1562 64 234 255
0.0312 -0.1562 0.2188 61 235 255
0.0312 -0.1562 0.2812 51 238 255
0.0312 -0.0938 -0.2812 51 238 255
0.0312 -0.0938 -0.2188 67 233 255
0.0312 -0.0938 -0.1562 61 235 255
0.0312 -0.0938 -0.0938 65 234 255
0.0312 -0.0938 -0.0312 62 235 255
0.0312 -0.0938 0.0312 66 233 255
0.0312 -0.0938 0.0938 61 235 255
0.0312 -0.0938 0.1562 66 233 255
0.0312 -0.0938 0.2188 60 235 255
0.0312 -0.0938 0.2812 53 238 255
0.0312 -0.0312 -0.2812 53 238 255
0.0312 -0.0312 -0.2188 70 232 255
0.0312 -0.0312 -0.1562 60 235 255
0.0312 -0.0312 -0.0938 63 234 255
0.0312 -0.0312 -0.0312 64 234 255
0.0312 -0.0312 0.0312 71 232 255
0.0312 -0.0312 0.0938 62 235 255
0.0312 -0.0312 0.1562 60 235 255
0.0312 -0.0312 0.2188 62 235 255
0.0312 -0.0312 0.2812 60 235 255
0.0312 -0.0312 0.3438 49 239 255
0.0312 0.0312 -0.2812 54 237 255
0.0312 0.0312 -0.2188 67 233 255
0.0312 0.0312 -0.1562 62 235 255
0.0312 0.0312 -0.0938 62 235 255
0.0312 0.0312 -0.0312 62 235 255
0.0312 0.0312 0.0312 70 232 255
0.0312 0.0312 0.0938 64 234 255
0.0312 0.0312 0.1562 62 235 255
0.0312 0.0312 0.2188 61 235 255
0.0312 0.0312 0.2812 61 235 255
0.0312 0.0312 0.3438 54 237 255
0.0312 0.0938 -0.3438 53 238 255
0.0312 0.0938 -0.2812 52 238 255
0.0312 0.0938 -0.2188 69 232 255
0.0312 0.0938 -0.1562 62 235 255
0.0312 0.0938 -0.0938 71 232 255
0.0312 0.0938 -0.0312 67 233 255
0.0312 0.0938 0.0312 71 232 255
0.0312 0.0938 0.0938 64 234 255
0.0312 0.0938 0.1562 70 232 255
0.0312 0.0938 0.2188 63 234 255
0.0312 0.0938 0.2812 60 235 255
0.0312 0.0938 0.3438 55 237 255
0.0312 0.1562 -0.2188 63 234 255
0.0312 0.1562 -0.1562 58 236 255
0.0312 0.1562 -0.0938 64 234 255
0.0312 0.1562 -0.0312 60 235 255
0.0312 0.1562 0.0312 63 234 255
0.0312 0.1562 0.0938 58 236 255
0.0312 0.1562 0.1562 60 235 255
0.0312 0.1562 0.2188 57 236 255
0.0312 0.1562 0.2812 55 237 255
0.0312 0.1562 0.3438 49 239 255
0.0312 0.2188 -0.2188 66 233 255
0.0312 0.2188 -0.1562 55 237 255
0.0312 0.2188 -0.0938 59 236 255
0.0312 0.2188 -0.0312 60 235 255
0.0312 0.2188 0.0312 66 233 255
0.0312 0.2188 0.0938 55 237 255
0.0312 0.2188 0.1562 56 237 255
0.0312 0.2188 0.2188 57 236 255
0.0312 0.2188 0.2812 58 236 255
0.0312 0.2812 -0.2188 50 239 255
0.0312 0.2812 -0.0938 49 239 255
0.0312 0.2812 -0.0312 52 238 255
0.0312 0.2812 0.0312 55 237 255
0.0312 0.2812 0.0938 50 239 255
0.0312 0.3438 -0.0938 51 238 255
0.0312 0.3438 -0.0312 49 239 255
0.0312 0.3438 0.0312 49 239 255
0.0938 -0.3438 -0.2188 56 237 255
0.0938 -0.3438 -0.1562 51 238 255
0.0938 -0.3438 -0.0938 57 236 255
0.0938 -0.3438 -0.0312 55 237 255
0.0938 -0.3438 0.0312 51 238 255
0.0938 -0.2812 -0.2188 60 235 255
0.0938 -0.2812 -0.1562 57 236 255
0.0938 -0.2812 -0.0938 60 235 255
0.0938 -0.2812 -0.0312 56 237 255
0.0938 -0.2812 0.0312 56 237 255
0.0938 -0.2812 0.0938 52 238 255
0.0938 -0.2188 -0.2188 58 236 255
0.0938 -0.2188 -0.1562 56 237 255
0.0938 -0.2188 -0.0938 60 235 255
0.0938 -0.2188 -0.0312 57 236 255
0.0938 -0.2188 0.0312 58 236 255
0.0938 -0.2188 0.0938 55 237 255
0.0938 -0.2188 0.1562 58 236 255
0.0938 -0.2188 0.2188 54 237 255
0.0938 -0.1562 -0.2188 62 235 255
0.0938 -0.1562 -0.1562 60 235 255
0.0938 -0.1562 -0.0938 65 234 255
0.0938 -0.1562 -0.0312 62 235 255
0.0938 -0.1562 0.0312 62 235 255
0.0938 -0.1562 0.0938 62 235 255
0.0938 -0.1562 0.1562 62 235 255
0.0938 -0.1562 0.2188 59 236 255
0.0938 -0.1562 0.2812 48 239 255
0.0938 -0.0938 -0.2812 53 238 255
0.0938 -0.0938 -0.2188 64 234 255
0.0938 -0.0938 -0.1562 61 235 255
0.0938 -0.0938 -0.0938 65 234 255
0.0938 -0.0938 -0.0312 69 232 255
0.0938 -0.0938 0.0312 63 234 255
0.0938 -0.0938 0.0938 64 234 255
0.0938 -0.0938 0.1562 63 234 255
0.0938 -0.0938 0.2188 67 233 255
0.0938 -0.0938 0.2812 55 237 255
0.0938 -0.0938 0.3438 51 238 255
0.0938 -0.0312 -0.3438 51 238 255
0.0938 -0.0312 -0.2812 52 238 255
0.0938 -0.0312 -0.2188 69 232 255
0.0938 -0.0312 -0.1562 65 234 255
0.0938 -0.0312 -0.0938 69 232 255
0.0938 -0.0312 -0.0312 64 234 255
0.0938 -0.0312 0.0312 70 232 255
0.0938 -0.0312 0.0938 68 233 255
0.0938 -0.0312 0.1562 67 233 255
0.0938 -0.0312 0.2188 62 235 255
0.0938 -0.0312 0.2812 57 236 255
0.0938 -0.0312 0.3438 51 238 255
0.0938 0.0312 -0.3438 49 239 255
0.0938 0.0312 -0.2812 52 238 255
0.0938 0.0312 -0.2188 62 235 255
0.0938 0.0312 -0.1562 60 235 255
0.0938 0.0312 -0.0938 64 234 255
0.0938 0.0312 -0.0312 61 235 255
0.0938 0.0312 0.0312 63 234 255
0.0938 0.0312 0.0938 60 235 255
0.0938 0.0312 0.1562 63 234 255
0.0938 0.0312 0.2188 60 235 255
0.0938 0.0312 0.2812 55 237 255
0.0938 0.0312 0.3438 51 238 255
0.0938 0.0938 -0.3438 52 238 255
0.0938 0.0938 -0.2812 52 238 255
0.0938 0.0938 -0.2188 65 234 255
0.0938 0.0938 -0.1562 63 234 255
0.0938 0.0938 -0.0938 68 233 255
0.0938 0.0938 -0.0312 65 234 255
0.0938 0.0938 0.0312 65 234 255
0.0938 0.0938 0.0938 65 234 255
0.0938 0.0938 0.1562 68 233 255
0.0938 0.0938 0.2188 62 235 255
0.0938 0.0938 0.2812 57 236 255
0.0938 0.0938 0.3438 54 237 255
0.0938 0.1562 -0.2812 51 238 255
0.0938 0.1562 -0.2188 62 235 255
0.0938 0.1562 -0.1562 63 234 255
0.0938 0.1562 -0.0938 65 234 255
0.0938 0.1562 -0.0312 66 233 255
0.0938 0.1562 0.0312 61 235 255
0.0938 0.1562 0.0938 60 235 255
0.0938 0.1562 0.1562 60 235 255
0.0938 0.1562 0.2188 67 233 255
0.0938 0.1562 0.2812 55 237 255
0.0938 0.1562 0.3438 57 236 255
0.0938 0.2188 -0.2188 67 233 255
0.0938 0.2188 -0.1562 63 234 255
0.0938 0.2188 -0.0938 65 234 255
0.0938 0.2188 -0.0312 61 235 255
0.0938 0.2188 0.0312 66 233 255
0.0938 0.2188 0.0938 62 235 255
0.0938 0.2188 0.1562 62 235 255
0.0938 0.2188 0.2188 60 235 255
0.0938 0.2188 0.2812 58 236 255
0.0938 0.2188 0.3438 53 238 255
0.0938 0.2812 -0.0938 52 238 255
0.0938 0.2812 -0.0312 50 239 255
0.0938 0.2812 0.0312 50 239 255
0.0938 0.2812 0.0938 48 239 255
0.0938 0.2812 0.1562 49 239 255
0.0938 0.2812 0.2188 48 239 255
0.0938 0.3438 -0.0938 50 239 255
0.0938 0.3438 0.0312 49 239 255
0.0938 0.3438 0.0938 48 239 255
0.1562 -0.3438 -0.2188 56 237 255
0.1562 -0.3438 -0.1562 57 236 255
0.1562 -0.3438 -0.0938 54 237 255
0.1562 -0.3438 -0.0312 51 238 255
0.1562 -0.3438 0.0312 51 238 255
0.1562 -0.3438 0.0938 52 238 255
0.1562 -0.2812 -0.2188 57 236 255
0.1562 -0.2812 -0.1562 55 237 255
0.1562 -0.2812 -0.0938 60 235 255
0.1562 -0.2812 -0.0312 56 237 255
0.1562 -0.2812 0.0312 54 237 255
0.1562 -0.2812 0.0938 53 238 255
0.1562 -0.2812 0.1562 52 238 255
0.1562 -0.2188 -0.2188 58 236 255
0.1562 -0.2188 -0.1562 55 237 255
0.1562 -0.2188 -0.0938 58 236 255
0.1562 -0.2188 -0.0312 58 236 255
0.1562 -0.2188 0.0312 60 235 255
0.1562 -0.2188 0.0938 56 237 255
0.1562 -0.2188 0.1562 56 237 255
0.1562 -0.2188 0.2188 54 237 255
0.1562 -0.1562 -0.2188 59 236 255
0.1562 -0.1562 -0.1562 54 237 255
0.1562 -0.1562 -0.0938 62 235 255
0.1562 -0.1562 -0.0312 61 235 255
0.1562 -0.1562 0.0312 63 234 255
0.1562 -0.1562 0.0938 59 236 255
0.1562 -0.1562 0.1562 59 236 255
0.1562 -0.1562 0.2188 57 236 255
0.1562 -0.1562 0.2812 49 239 255
0.1562 -0.0938 -0.2812 49 239 255
0.1562 -0.0938 -0.2188 64 234 255
0.1562 -0.0938 -0.1562 67 233 255
0.1562 -0.0938 -0.0938 65 234 255
0.1562 -0.0938 -0.0312 62 235 255
0.1562 -0.0938 0.0312 66 233 255
0.1562 -0.0938 0.0938 68 233 255
0.1562 -0.0938 0.1562 63 234 255
0.1562 -0.0938 0.2188 59 236 255
0.1562 -0.0938 0.2812 57 236 255
0.1562 -0.0938 0.3438 55 237 255
0.1562 -0.0312 -0.3438 49 239 255
0.1562 -0.0312 -0.2812 51 238 255
0.1562 -0.0312 -0.2188 65 234 255
0.1562 -0.0312 -0.1562 63 234 255
0.1562 -0.0312 -0.0938 69 232 255
0.1562 -0.0312 -0.0312 65 234 255
0.1562 -0.0312 0.0312 68 233 255
0.1562 -0.0312 0.0938 65 234 255
0.1562 -0.0312 0.1562 68 233 255
0.1562 -0.0312 0.2188 62 235 255
0.1562 -0.0312 0.2812 58 236 255
0.1562 -0.0312 0.3438 54 237 255
0.1562 0.0312 -0.2812 49 239 255
0.1562 0.0312 -0.2188 64 234 255
0.1562 0.0312 -0.1562 62 235 255
0.1562 0.0312 -0.0938 63 234 255
0.1562 0.0312 -0.0312 61 235 255
0.1562 0.0312 0.0312 64 234 255
0.1562 0.0312 0.0938 61 235 255
0.1562 0.0312 0.1562 62 235 255
0.1562 0.0312 0.2188 60 235 255
0.1562 0.0312 0.2812 59 236 255
0.1562 0.0312 0.3438 52 238 255
0.1562 0.0938 -0.2812 49 239 255
0.1562 0.0938 -0.2188 65 234 255
0.1562 0.0938 -0.1562 59 236 255
0.1562 0.0938 -0.0938 66 233 255
0.1562 0.0938 -0.0312 64 234 255
0.1562 0.0938 0.0312 65 234 255
0.1562 0.0938 0.0938 61 235 255
0.1562 0.0938 0.1562 65 234 255
0.1562 0.0938 0.2188 62 235 255
0.1562 0.0938 0.2812 58 236 255
0.1562 0.0938 0.3438 53 238 255
0.1562 0.1562 -0.2188 66 233 255
0.1562 0.1562 -0.1562 66 233 255
0.1562 0.1562 -0.0938 66 233 255
0.1562 0.1562 -0.0312 61 235 255
0.1562 0.1562 0.0312 64 234 255
0.1562 0.1562 0.0938 66 233 255
0.1562 0.1562 0.1562 63 234 255
0.1562 0.1562 0.2188 58 236 255
0.1562 0.1562 0.2812 60 235 255
0.1562 0.1562 0.3438 58 236 255
0.1562 0.2188 -0.2188 63 234 255
0.1562 0.2188 -0.1562 58 236 255
0.1562 0.2188 -0.0938 67 233 255
0.1562 0.2188 -0.0312 60 235 255
0.1562 0.2188 0.0312 62 235 255
0.1562 0.2188 0.0938 59 236 255
0.1562 0.2188 0.1562 65 234 255
0.1562 0.2188 0.2188 61 235 255
0.1562 0.2188 0.2812 57 236 255
0.1562 0.2188 0.3438 51 238 255
0.1562 0.2812 0.0312 50 239 255
0.1562 0.2812 0.0938 48 239 255
0.1562 0.3438 0.0312 48 239 255
0.2188 -0.3438 -0.2188 53 238 255
0.2188 -0.3438 -0.1562 49 239 255
0.2188 -0.3438 -0.0938 51 238 255
0.2188 -0.3438 -0.0312 51 238 255
0.2188 -0.3438 0.0312 50 239 255
0.2188 -0.2812 -0.2188 57 236 255
0.2188 -0.2812 -0.1562 54 237 255
0.2188 -0.2812 -0.0938 53 238 255
0.2188 -0.2812 -0.0312 52 238 255
0.2188 -0.2812 0.0312 55 237 255
0.2188 -0.2812 0.0938 53 238 255
0.2188 -0.2188 -0.2188 57 236 255
0.2188 -0.2188 -0.1562 52 238 255
0.2188 -0.2188 -0.0938 62 235 255
0.2188 -0.2188 -0.0312 60 235 255
0.2188 -0.2188 0.0312 62 235 255
0.2188 -0.2188 0.0938 55 237 255
0.2188 -0.2188 0.1562 59 236 255
0.2188 -0.2188 0.2188 53 238 255
0.2188 -0.1562 -0.2188 61 235 255
0.2188 -0.1562 -0.1562 60 235 255
0.2188 -0.1562 -0.0938 64 234 255
0.2188 -0.1562 -0.0312 62 235 255
0.2188 -0.1562 0.0312 65 234 255
0.2188 -0.1562 0.0938 62 235 255
0.2188 -0.1562 0.1562 60 235 255
0.2188 -0.1562 0.2188 56 237 255
0.2188 -0.1562 0.2812 51 238 255
0.2188 -0.0938 -0.2188 63 234 255
0.2188 -0.0938 -0.1562 61 235 255
0.2188 -0.0938 -0.0938 62 235 255
0.2188 -0.0938 -0.0312 63 234 255
0.2188 -0.0938 0.0312 67 233 255
0.2188 -0.0938 0.0938 62 235 255
0.2188 -0.0938 0.1562 59 236 255
0.2188 -0.0938 0.2188 58 236 255
0.2188 -0.0938 0.2812 56 237 255
0.2188 -0.0938 0.3438 51 238 255
0.2188 -0.0312 -0.2188 63 234 255
0.2188 -0.0312 -0.1562 61 235 255
0.2188 -0.0312 -0.0938 61 235 255
0.2188 -0.0312 -0.0312 61 235 255
0.2188 -0.0312 0.0312 65 234 255
0.2188 -0.0312 0.0938 62 235 255
0.2188 -0.0312 0.1562 59 236 255
0.2188 -0.0312 0.2188 57 236 255
0.2188 -0.0312 0.2812 57 236 255
0.2188 -0.0312 0.3438 52 238 255
0.2188 0.0312 -0.2812 49 239 255
0.2188 0.0312 -0.2188 64 234 255
0.2188 0.0312 -0.1562 59 236 255
0.2188 0.0312 -0.0938 67 233 255
0.2188 0.0312 -0.0312 64 234 255
0.2188 0.0312 0.0312 66 233 255
0.2188 0.0312 0.0938 59 236 255
0.2188 0.0312 0.1562 64 234 255
0.2188 0.0312 0.2188 62 235 255
0.2188 0.0312 0.2812 60 235 255
0.2188 0.0312 0.3438 53 238 255
0.2188 0.0938 -0.3438 50 239 255
0.2188 0.0938 -0.2188 67 233 255
0.2188 0.0938 -0.1562 64 234 255
0.2188 0.0938 -0.0938 68 233 255
0.2188 0.0938 -0.0312 64 234 255
0.2188 0.0938 0.0312 69 232 255
0.2188 0.0938 0.0938 65 234 255
0.2188 0.0938 0.1562 67 233 255
0.2188 0.0938 0.2188 62 235 255
0.2188 0.0938 0.2812 62 235 255
0.2188 0.0938 0.3438 56 237 255
0.2188 0.1562 -0.2188 62 235 255
0.2188 0.1562 -0.1562 59 236 255
0.2188 0.1562 -0.0938 61 235 255
0.2188 0.1562 -0.0312 62 235 255
0.2188 0.1562 0.0312 65 234 255
0.2188 0.1562 0.0938 61 235 255
0.2188 0.1562 0.1562 60 235 255
0.2188 0.1562 0.2188 59 236 255
0.2188 0.1562 0.2812 59 236 255
0.2188 0.1562 0.3438 53 238 255
0.2188 0.2188 -0.2188 61 235 255
0.2188 0.2188 -0.1562 57 236 255
0.2188 0.2188 -0.0938 60 235 255
0.2188 0.2188 -0.0312 57 236 255
0.2188 0.2188 0.0312 61 235 255
0.2188 0.2188 0.0938 59 236 255
0.2188 0.2188 0.1562 59 236 255
0.2188 0.2188 0.2188 56 237 255
0.2188 0.2188 0.2812 56 237 255
0.2188 0.2188 0.3438 50 239 255
0.2188 0.2812 -0.0938 50 239 255
0.2188 0.2812 -0.0312 51 238 255
0.2188 0.2812 0.0312 51 238 255
0.2188 0.2812 0.2188 48 239 255
0.2188 0.3438 0.0312 52 238 255
0.2812 -0.2812 -0.2188 51 238 255
0.2812 -0.2812 -0.0312 49 239 255
0.2812 -0.2812 0.0312 52 238 255
0.2812 -0.2812 0.0938 48 239 255
0.2812 -0.2188 -0.2188 51 238 255
0.2812 -0.2188 -0.1562 49 239 255
0.2812 -0.2188 -0.0938 50 239 255
0.2812 -0.2188 -0.0312 54 237 255
0.2812 -0.2188 0.0312 60 235 255
0.2812 -0.2188 0.0938 53 238 255
0.2812 -0.2188 0.1562 50 239 255
0.2812 -0.1562 -0.2188 54 237 255
0.2812 -0.1562 -0.1562 54 237 255
0.2812 -0.1562 -0.0938 60 235 255
0.2812 -0.1562 -0.0312 59 236 255
0.2812 -0.1562 0.0312 62 235 255
0.2812 -0.1562 0.0938 59 236 255
0.2812 -0.1562 0.1562 57 236 255
0.2812 -0.1562 0.2188 55 237 255
0.2812 -0.0938 -0.2188 55 237 255
0.2812 -0.0938 -0.1562 51 238 255
0.2812 -0.0938 -0.0938 59 236 255
0.2812 -0.0938 -0.0312 56 237 255
0.2812 -0.0938 0.0312 62 235 255
0.2812 -0.0938 0.0938 54 237 255
0.2812 -0.0938 0.1562 57 236 255
0.2812 -0.0938 0.2188 51 238 255
0.2812 -0.0938 0.2812 49 239 255
0.2812 -0.0312 -0.2188 58 236 255
0.2812 -0.0312 -0.1562 53 238 255
0.2812 -0.0312 -0.0938 56 237 255
0.2812 -0.0312 -0.0312 60 235 255
0.2812 -0.0312 0.0312 64 234 255
0.2812 -0.0312 0.0938 56 237 255
0.2812 -0.0312 0.1562 52 238 255
0.2812 -0.0312 0.2188 58 236 255
0.2812 -0.0312 0.2812 54 237 255
0.2812 0.0312 -0.2188 59 236 255
0.2812 0.0312 -0.1562 56 237 255
0.2812 0.0312 -0.0938 57 236 255
0.2812 0.0312 -0.0312 59 236 255
0.2812 0.0312 0.0312 64 234 255
0.2812 0.0312 0.0938 58 236 255
0.2812 0.0312 0.1562 54 237 255
0.2812 0.0312 0.2188 56 237 255
0.2812 0.0312 0.2812 56 237 255
0.2812 0.0938 -0.2188 61 235 255
0.2812 0.0938 -0.1562 58 236 255
0.2812 0.0938 -0.0938 65 234 255
0.2812 0.0938 -0.0312 63 234 255
0.2812 0.0938 0.0312 65 234 255
0.2812 0.0938 0.0938 61 235 255
0.2812 0.0938 0.1562 64 234 255
0.2812 0.0938 0.2188 61 235 255
0.2812 0.0938 0.2812 55 237 255
0.2812 0.0938 0.3438 51 238 255
0.2812 0.1562 -0.2188 55 237 255
0.2812 0.1562 -0.1562 50 239 255
0.2812 0.1562 -0.0938 58 236 255
0.2812 0.1562 -0.0312 54 237 255
0.2812 0.1562 0.0312 56 237 255
0.2812 0.1562 0.0938 51 238 255
0.2812 0.1562 0.1562 56 237 255
0.2812 0.1562 0.2188 51 238 255
0.2812 0.1562 0.2812 52 238 255
0.2812 0.2188 -0.2188 55 237 255
0.2812 0.2188 -0.0938 52 238 255
0.2812 0.2188 -0.0312 54 237 255
0.2812 0.2188 0.0312 57 236 255
0.2812 0.2188 0.0938 52 238 255
0.2812 0.2188 0.1562 50 239 255
0.2812 0.2188 0.2188 54 237 255
0.2812 0.2188 0.2812 53 238 255
0.3438 -0.2188 -0.0938 53 238 255
0.3438 -0.2188 0.0312 52 238 255
0.3438 -0.2188 0.0938 49 239 255
0.3438 -0.2188 0.1562 50 239 255
0.3438 -0.1562 -0.2188 49 239 255
0.3438 -0.1562 -0.0938 53 238 255
0.3438 -0.1562 -0.0312 53 238 255
0.3438 -0.1562 0.0312 54 237 255
0.3438 -0.1562 0.0938 52 238 255
0.3438 -0.1562 0.1562 50 239 255
0.3438 -0.1562 0.2188 49 239 255
0.3438 -0.0938 -0.2188 51 238 255
0.3438 -0.0938 -0.0938 57 236 255
0.3438 -0.0938 -0.0312 57 236 255
0.3438 -0.0938 0.0312 57 236 255
0.3438 -0.0938 0.0938 52 238 255
0.3438 -0.0938 0.1562 52 238 255
0.3438 -0.0938 0.2188 56 237 255
0.3438 -0.0312 -0.2188 56 237 255
0.3438 -0.0312 -0.1562 53 238 255
0.3438 -0.0312 -0.0938 58 236 255
0.3438 -0.0312 -0.0312 55 237 255
0.3438 -0.0312 0.0312 59 236 255
0.3438 -0.0312 0.0938 55 237 255
0.3438 -0.0312 0.1562 53 238 255
0.3438 -0.0312 0.2188 50 239 255
0.3438 -0.0312 0.2812 48 239 255
0.3438 0.0312 -0.2188 51 238 255
0.3438 0.0312 -0.1562 49 239 255
0.3438 0.0312 -0.0938 58 236 255
0.3438 0.0312 -0.0312 53 238 255
0.3438 0.0312 0.0312 55 237 255
0.3438 0.0312 0.0938 51 238 255
0.3438 0.0312 0.1562 55 237 255
0.3438 0.0312 0.2188 50 239 255
0.3438 0.0938 -0.2188 54 237 255
0.3438 0.0938 -0.1562 51 238 255
0.3438 0.0938 -0.0938 58 236 255
0.3438 0.0938 -0.0312 57 236 255
0.3438 0.0938 0.0312 57 236 255
0.3438 0.0938 0.0938 55 237 255
0.3438 0.0938 0.1562 57 236 255
0.3438 0.0938 0.2188 53 238 255
0.3438 0.0938 0.2812 49 239 255
0.3438 0.1562 -0.2188 51 238 255
0.3438 0.1562 -0.0938 56 237 255
0.3438 0.1562 -0.0312 56 237 255
0.3438 0.1562 0.0312 54 237 255
0.3438 0.1562 0.0938 51 238 255
0.3438 0.1562 0.1562 54 237 255
0.3438 0.1562 0.2188 57 236 255
0.3438 0.1562 0.2812 49 239 255
0.3438 0.2188 -0.2188 53 238 255
0.3438 0.2188 -0.1562 50 239 255
0.3438 0.2188 -0.0938 52 238 255
0.3438 0.2188 -0.0312 50 239 255
0.3438 0.2188 0.0312 56 237 255
0.3438 0.2188 0.0938 54 237 255
0.3438 0.2188 0.1562 51 238 255
0.3438 0.2188 0.2188 50 239 255
